Coordinates
version=1
nRows=14
nColumns=40
inDegrees=yes

Units are S.I. units (second, meters, Newtons, ...)
If the header above contains a line with 'inDegrees', this indicates whether rotational values are in degrees (yes) or radians (no).

endheader
time	pelvis_tilt	pelvis_list	pelvis_rotation	pelvis_tx	pelvis_ty	pelvis_tz	hip_flexion_r	hip_adduction_r	hip_rotation_r	knee_angle_r	knee_angle_r_beta	ankle_angle_r	subtalar_angle_r	mtp_angle_r	hip_flexion_l	hip_adduction_l	hip_rotation_l	knee_angle_l	knee_angle_l_beta	ankle_angle_l	subtalar_angle_l	mtp_angle_l	lumbar_extension	lumbar_bending	lumbar_rotation	arm_flex_r	arm_add_r	arm_rot_r	elbow_flex_r	pro_sup_r	wrist_flex_r	wrist_dev_r	arm_flex_l	arm_add_l	arm_rot_l	elbow_flex_l	pro_sup_l	wrist_flex_l	wrist_dev_l
      4.77500000	    -33.34338808	      0.36572869	      2.91161877	      0.10833508	      0.45107537	     -1.14448868	    126.96201838	    -48.22375319	     23.90245541	    114.46874969	      1.99785657	     28.46093483	     13.08982586	      0.00000000	    125.47035934	    -45.38131871	     18.79995045	    107.93255371	      1.88377843	     23.21173501	     23.56942301	      0.00000000	      0.00000000	      0.00000000	      0.00000000	     44.98899095	    -15.00028542	     44.98899095	     75.00017718	     45.00000026	      0.00000000	      0.00000000	     44.98899095	    -15.00028542	     44.98899095	     75.00017718	     45.00000026	      0.00000000	      0.00000000
      4.78000000	    -33.27597430	      0.30519353	      2.91632158	      0.10855731	      0.44978265	     -1.14463461	    127.05722743	    -48.22538787	     24.06197515	    114.64804567	      2.00098588	     28.51752845	     13.06807282	      0.00000000	    125.70704052	    -45.30170193	     19.10425293	    108.13593479	      1.88732810	     23.27318287	     23.56268791	      0.00000000	      0.00000000	      0.00000000	      0.00000000	     44.98972210	    -15.00025810	     44.98972210	     75.00017699	     45.00000026	      0.00000000	      0.00000000	     44.98972210	    -15.00025810	     44.98972210	     75.00017699	     45.00000026	      0.00000000	      0.00000000
      4.78500000	    -33.23052463	      0.20541082	      2.88183930	      0.10873599	      0.44845492	     -1.14475866	    127.09698028	    -48.20220416	     24.12084002	    114.82327446	      2.00404420	     28.55766880	     12.97719644	      0.00000000	    126.05161548	    -45.23183256	     19.49744435	    108.34228452	      1.89092958	     23.26330705	     23.53412689	      0.00000000	      0.00000000	      0.00000000	      0.00000000	     44.99086939	    -15.00021618	     44.99086939	     75.00017672	     45.00000026	      0.00000000	      0.00000000	     44.99086939	    -15.00021618	     44.99086939	     75.00017672	     45.00000026	      0.00000000	      0.00000000
      4.79000000	    -33.04973345	      0.21226718	      2.86721896	      0.10904269	      0.44750244	     -1.14478526	    127.08900381	    -48.17093823	     24.33228629	    114.99061518	      2.00696484	     28.68373480	     13.13296543	      0.00000000	    126.09029048	    -45.26066787	     19.70926821	    108.53545270	      1.89430100	     23.39994783	     23.60018648	      0.00000000	      0.00000000	      0.00000000	      0.00000000	     44.99183196	    -15.00018314	     44.99183196	     75.00017653	     45.00000026	      0.00000000	      0.00000000	     44.99183196	    -15.00018314	     44.99183196	     75.00017653	     45.00000026	      0.00000000	      0.00000000
      4.79500000	    -33.08153951	      0.28141564	      2.90697062	      0.10916163	      0.44612311	     -1.14482037	    127.47242869	    -48.09842520	     24.70076046	    115.17007584	      2.01009702	     28.64043401	     12.98339579	      0.00000000	    126.23861355	    -45.22620642	     19.77195766	    108.69822568	      1.89714193	     23.42431626	     23.54110731	      0.00000000	      0.00000000	      0.00000000	      0.00000000	     44.99276396	    -15.00015266	     44.99276396	     75.00017636	     45.00000026	      0.00000000	      0.00000000	     44.99276396	    -15.00015266	     44.99276396	     75.00017636	     45.00000026	      0.00000000	      0.00000000
      4.80000000	    -32.97969343	      0.17931476	      2.88039713	      0.10938623	      0.44504074	     -1.14496832	    127.43522145	    -48.12399068	     24.74525809	    115.33138138	      2.01291234	     28.73073208	     13.03264918	      0.00000000	    126.49754928	    -45.16490531	     20.13977170	    108.88417732	      1.90038740	     23.44399541	     23.56080359	      0.00000000	      0.00000000	      0.00000000	      0.00000000	     44.99352049	    -15.00012953	     44.99352049	     75.00017625	     45.00000026	      0.00000000	      0.00000000	     44.99352049	    -15.00012953	     44.99352049	     75.00017625	     45.00000026	      0.00000000	      0.00000000
      4.80500000	    -32.99256097	      0.25723971	      2.94362001	      0.10950139	      0.44381030	     -1.14502394	    127.80443611	    -48.08037260	     25.13470811	    115.49290783	      2.01573150	     28.71435236	     12.95862580	      0.00000000	    126.56958522	    -45.13359054	     20.14719290	    109.03119627	      1.90295336	     23.53081148	     23.56451931	      0.00000000	      0.00000000	      0.00000000	      0.00000000	     44.99376863	    -15.00012190	     44.99376863	     75.00017621	     45.00000026	      0.00000000	      0.00000000	     44.99376863	    -15.00012190	     44.99376863	     75.00017621	     45.00000026	      0.00000000	      0.00000000
      4.81000000	    -32.96462039	      0.25121577	      2.94484607	      0.10965173	      0.44266726	     -1.14510205	    127.97361008	    -48.05332331	     25.33399145	    115.64210135	      2.01833542	     28.74347001	     12.95839382	      0.00000000	    126.76221103	    -45.11730144	     20.33418164	    109.19386535	      1.90579247	     23.55793086	     23.57133695	      0.00000000	      0.00000000	      0.00000000	      0.00000000	     44.99400477	    -15.00011481	     44.99400477	     75.00017617	     45.00000026	      0.00000000	      0.00000000	     44.99400477	    -15.00011481	     44.99400477	     75.00017617	     45.00000026	      0.00000000	      0.00000000
      4.81500000	    -32.92006495	      0.23648773	      2.94300681	      0.10977978	      0.44162094	     -1.14517120	    128.10951171	    -48.03605832	     25.50900787	    115.78287274	      2.02079235	     28.76585366	     12.96412947	      0.00000000	    126.93837789	    -45.10355994	     20.52301753	    109.34453827	      1.90842221	     23.58582671	     23.60549374	      0.00000000	      0.00000000	      0.00000000	      0.00000000	     44.99425500	    -15.00010743	     44.99425500	     75.00017614	     45.00000026	      0.00000000	      0.00000000	     44.99425500	    -15.00010743	     44.99425500	     75.00017614	     45.00000026	      0.00000000	      0.00000000
      4.82000000	    -32.90334571	      0.21895593	      2.95391447	      0.10988315	      0.44055999	     -1.14527101	    128.27698741	    -48.03504119	     25.68451773	    115.91714328	      2.02313581	     28.79231377	     12.96672740	      0.00000000	    127.12761376	    -45.07407269	     20.69570210	    109.48870840	      1.91093846	     23.62895652	     23.62214653	      0.00000000	      0.00000000	      0.00000000	      0.00000000	     44.99446668	    -15.00010134	     44.99446668	     75.00017611	     45.00000026	      0.00000000	      0.00000000	     44.99446668	    -15.00010134	     44.99446668	     75.00017611	     45.00000026	      0.00000000	      0.00000000
      4.82500000	    -32.88779807	      0.23624485	      2.96422588	      0.10998127	      0.43954082	     -1.14532474	    128.48254005	    -48.01377775	     25.90337188	    116.04802480	      2.02542012	     28.80606931	     12.97897799	      0.00000000	    127.27821741	    -45.07889127	     20.81203632	    109.62400853	      1.91329989	     23.65547931	     23.65011636	      0.00000000	      0.00000000	      0.00000000	      0.00000000	     44.99466751	    -15.00009568	     44.99466751	     75.00017609	     45.00000026	      0.00000000	      0.00000000	     44.99466751	    -15.00009568	     44.99466751	     75.00017609	     45.00000026	      0.00000000	      0.00000000
      4.83000000	    -32.87080851	      0.23789813	      2.95323153	      0.11004202	      0.43855333	     -1.14537387	    128.65056735	    -47.98265372	     26.07407242	    116.16640956	      2.02748633	     28.82034599	     12.99617083	      0.00000000	    127.45913741	    -45.09625826	     20.96625403	    109.76334481	      1.91573176	     23.69817427	     23.70613591	      0.00000000	      0.00000000	      0.00000000	      0.00000000	     44.99488667	    -15.00008961	     44.99488667	     75.00017606	     45.00000026	      0.00000000	      0.00000000	     44.99488667	    -15.00008961	     44.99488667	     75.00017606	     45.00000026	      0.00000000	      0.00000000
      4.83500000	    -32.89017224	      0.22957390	      2.95615687	      0.11009965	      0.43756750	     -1.14541030	    128.84139515	    -47.97003480	     26.22740321	    116.28740055	      2.02959802	     28.83517802	     12.99051233	      0.00000000	    127.67336589	    -45.09699756	     21.11271420	    109.87650428	      1.91770677	     23.68948967	     23.72061521	      0.00000000	      0.00000000	      0.00000000	      0.00000000	     44.99506973	    -15.00008470	     44.99506973	     75.00017604	     45.00000026	      0.00000000	      0.00000000	     44.99506973	    -15.00008470	     44.99506973	     75.00017604	     45.00000026	      0.00000000	      0.00000000
      4.84000000	    -32.87082220	      0.24181379	      2.95783577	      0.11018552	      0.43673326	     -1.14547988	    129.01124818	    -47.96711321	     26.39816179	    116.38819397	      2.03135720	     28.82971878	     13.02159231	      0.00000000	    127.80591407	    -45.11867062	     21.21507827	    109.98962775	      1.91968115	     23.70033050	     23.77378614	      0.00000000	      0.00000000	      0.00000000	      0.00000000	     44.99524874	    -15.00007996	     44.99524874	     75.00017603	     45.00000026	      0.00000000	      0.00000000	     44.99524874	    -15.00007996	     44.99524874	     75.00017603	     45.00000026	      0.00000000	      0.00000000
